<svg xmlns="http://www.w3.org/2000/svg" width="256" height="256"><path fill-opacity=".016" d="M0 128.004v128.004l128.25-.254 128.25-.254.254-127.75L257.008 0H0v128.004m.485.496c0 70.4.119 99.053.265 63.672.146-35.38.146-92.98 0-128C.604 29.153.485 58.1.485 128.5" fill-rule="evenodd"/><path fill-opacity=".227" d="M115.418 30.415c-19.893 4.548-37.843 21.762-42.887 41.127-1.928 7.402-1.956 22.271-.056 29.413 5.48 20.59 23.614 37.782 43.857 41.58l3.668.688V88h-9.378c-11.235 0-11.849-.466-11.424-8.666L99.5 73.5l10.25-.285L120 72.93v-9.343c0-11.196.471-11.814 8.666-11.389l5.834.302.5 10 .5 10 9.965.289c6.426.186 10.238.719 10.735 1.5 1.123 1.768.969 9.527-.235 11.777-.917 1.713-2.172 1.934-11 1.934H135v27.031c0 22.662.234 27.122 1.447 27.587.795.305 4.058-.195 7.25-1.111C167.824 134.581 185 111.63 185 86.316c0-24.994-16.549-47.311-40.703-54.888-6.933-2.175-21.552-2.688-28.879-1.013m74.881 75.486c-4.029.575-4.343.884-7.716 7.599-8.408 16.738-22.426 27.952-40.326 32.258l-7.243 1.742-.007 13.856c-.008 16.084 1.353 22.688 6.828 33.138 4.44 8.474 13.968 18.8 21.576 23.383 6.217 3.745 18.028 8.35 18.979 7.4.335-.336.61-7.229.61-15.319V195.25l-3-.6-3-.6v-29.403c0-30.777.26-32.636 4.346-31.068 1.337.513 1.644 2.846 1.876 14.267.263 12.895.389 13.654 2.278 13.654 1.917 0 2.011-.758 2.273-18.314l.273-18.314 2.727.314 2.727.314.5 17.988c.429 15.438.727 18.031 2.1 18.294 1.31.251 1.716-1.082 2.25-7.389.357-4.232.65-12.577.65-18.544 0-10.739.024-10.849 2.364-10.849 2.054 0 2.447.608 3 4.64.35 2.551.636 10.909.636 18.573 0 12.731.151 13.905 1.75 13.598 1.548-.297 1.782-1.91 2.028-13.977.288-14.159.802-15.7 4.736-14.19 1.315.504 1.48 4.56 1.25 30.719L214.5 194.5l-2.25.32c-2.219.315-2.25.523-2.25 15.358v15.039l2.75-.64c1.512-.351 6.091-2.264 10.175-4.249 10.953-5.326 21.511-16.078 26.832-27.328 9.025-19.078 9.195-34.505.581-52.743-10.621-22.487-37.085-37.63-60.039-34.356m-143.074 1.621c-10.652 2.313-20.559 7.778-28.681 15.82-8.072 7.993-11.616 13.481-15.122 23.415-2.021 5.725-2.383 8.658-2.401 19.433-.019 11.223.284 13.536 2.612 20 6.564 18.22 20.36 31.562 38.59 37.321 4.334 1.369 8.082 2.489 8.329 2.489.246 0 .448-8.704.448-19.342v-19.341l4.25-1.379c2.338-.758 4.7-1.297 5.25-1.198.55.1 2.575.553 4.5 1.007l3.5.827.5 7.667.5 7.667 6.638-5.941c5.602-5.014 6.826-5.715 7.843-4.489 1.52 1.83-.412 4.649-8.905 12.991L69 210.437v7.849c0 7.002.189 7.794 1.75 7.341.963-.279 3.775-1.026 6.25-1.66 13.072-3.347 29.26-16.27 35.657-28.467 5.809-11.074 7.343-18.101 7.343-33.637 0-10.312-.324-14.004-1.25-14.229-7.82-1.895-19.489-6.581-24.555-9.859-8.221-5.322-16.219-14.26-20.905-23.363-2.321-4.508-4.53-7.508-5.774-7.843-3.508-.943-13.785-.46-20.291.953m.275 17.686c-3.117 1.787-4.434 4.01-4.468 7.542-.029 2.956-.311 3.25-3.109 3.25-3.647 0-8.923 4.714-8.923 7.973 0 2.689 2.561 7.714 4.213 8.265.844.281.331 1.515-1.568 3.772-2.231 2.651-2.699 3.997-2.235 6.422.757 3.954 4.886 7.568 8.646 7.568 2.621 0 2.944.338 2.944 3.077 0 4.138 4.744 8.923 8.846 8.923 1.707 0 4.228-1.033 5.848-2.396l2.847-2.396 2.785 2.396c5.666 4.874 13.568 1.193 13.642-6.354.029-2.918.33-3.25 2.955-3.25 1.686 0 4.226-1.096 6-2.589 3.907-3.287 4.165-7.965.668-12.121l-2.409-2.863 2.409-2.318C91.895 145.004 88.036 136 80.545 136c-3.394 0-3.545-.151-3.545-3.548 0-7.336-9.262-11.281-14.408-6.135l-2.317 2.317-2.693-2.317c-2.908-2.502-6.89-2.94-10.082-1.109m117.167 37.459c-.367.366-.667 6.441-.667 13.5V189h8v-12.893c0-10.834-.253-12.99-1.582-13.5-2.088-.801-4.92-.772-5.751.06m20.507 6.647c-2.869 3.055-2.746 6.564.394 11.191 3.067 4.52 6.155 7.265 9.074 8.068 5.177 1.424 14.358-7.671 14.358-14.223 0-6.183-6.801-9.65-11.171-5.695-1.702 1.54-1.956 1.54-3.658 0-2.582-2.337-6.448-2.053-8.997.659" fill-rule="evenodd"/><path fill-opacity=".567" d="M183.032 113.821c-9.279 17.836-24.645 29.249-45.282 33.633l-2.75.584v12.321c0 21.366 5.479 36.051 18.195 48.767 6.597 6.597 18.653 13.749 26.055 15.457l2.75.634v-15.039c0-14.835-.031-15.043-2.25-15.358l-2.25-.32v-61l2.387-.337c1.313-.186 2.768.264 3.235 1 .466.735.854 7.075.863 14.087.012 10.092.299 12.75 1.379 12.75 1.081 0 1.463-3.633 1.846-17.546.283-10.289.918-17.982 1.536-18.6.579-.579 1.998-.753 3.153-.386 2.032.645 2.101 1.259 2.101 18.599 0 17.197.081 17.933 1.977 17.933 1.884 0 1.99-.827 2.25-17.642.235-15.187.505-17.788 1.939-18.692 1.208-.762 2.102-.689 3.25.264 1.334 1.107 1.584 4.057 1.584 18.692 0 16.628.085 17.378 1.972 17.378 1.853 0 1.988-.826 2.25-13.75.276-13.641.297-13.753 2.665-14.087 1.313-.186 2.768.264 3.235 1 .957 1.51 1.21 56.807.271 59.255-.334.87-1.684 1.582-3 1.582H210V225.135l2.25-.656c10.371-3.02 24.05-12.263 30.446-20.573 15.271-19.838 17.226-46.184 5.04-67.906-4.156-7.408-15.822-18.752-23.422-22.775-8.298-4.392-19.834-7.225-29.423-7.225h-7.79l-4.069 7.821m-18.571 49.421c-.289.753-.399 6.969-.243 13.813l.282 12.445h7v-27l-3.257-.314c-2.071-.199-3.448.185-3.782 1.056M187 168.288c-1.943.978-2.561 2.145-2.772 5.235-.342 4.987 2.29 9.468 7.642 13.01 3.73 2.468 4.111 2.528 6.891 1.091 4.041-2.09 8.911-7.853 9.71-11.491 1.283-5.843-3.373-10.245-8.562-8.095-1.6.662-2.909 1.633-2.909 2.156 0 .523-1.186.018-2.635-1.121-3.053-2.402-3.961-2.499-7.365-.785" fill-rule="evenodd"/><path fill-opacity=".345" d="M189.73 106.685c-2.188.357-3.374 1.647-5.642 6.133-8.919 17.644-22.945 29.14-41.338 33.884l-6.75 1.741v13.384c0 15.514 1.396 22.237 6.785 32.673 6.773 13.116 23.603 26.745 35.965 29.124l3.25.626v-27.812l-3.015-1.137-3.015-1.138.265-30.332.265-30.331h7l.5 13.419c.348 9.337.873 13.543 1.727 13.826.933.309 1.293-3.983 1.5-17.919.272-18.281.279-18.327 2.578-18.653 4.815-.682 5.195.748 5.195 19.533 0 13.523.282 17.367 1.25 17.046.912-.303 1.385-5.254 1.75-18.334l.5-17.918h2.983c2.695 0 3.051.386 3.692 4 .391 2.2.736 10.412.767 18.25.076 18.64 1.905 19.041 2.28.5l.278-13.75h7l.265 30.292.264 30.292-2.906 1.222-2.906 1.222-.017 12.576c-.009 6.916.319 13.118.73 13.782 1.056 1.71 10.421-1.937 18.04-7.025 11.651-7.78 21.348-21.623 24.493-34.964 1.952-8.283 1.949-21.894-.006-29.402-2.815-10.808-7.263-18.382-15.914-27.101-11.404-11.493-22.542-16.552-39.043-17.732-3.3-.236-7.247-.226-8.77.023m-25.638 55.704c-.774.933-1.061 5.622-.873 14.25l.281 12.861h9l.282-12.99c.246-11.343.063-13.15-1.441-14.25-2.277-1.665-5.812-1.602-7.249.129m21.563 7.44c-3.285 3.63-1.373 9.577 4.829 15.023 4.21 3.697 5.641 3.852 10.098 1.098 8.898-5.5 9.882-17.95 1.418-17.95-1.288 0-3.165.745-4.171 1.655-1.702 1.54-1.956 1.54-3.658 0-2.415-2.186-6.455-2.103-8.516.174" fill-rule="evenodd"/></svg>